<svg width="43" height="48" viewBox="0 0 43 48" fill="none" xmlns="http://www.w3.org/2000/svg">
<path d="M19.2167 36.375C16.8667 36.375 15.0917 35.75 13.8917 34.5C12.7417 33.25 12.1667 31.35 12.1667 28.8C12.1667 26.25 12.8417 24.425 14.1917 23.325C15.5917 22.225 17.9417 21.675 21.2417 21.675C22.2917 21.675 23.3417 21.725 24.3917 21.825C25.4417 21.925 26.3167 22.05 27.0167 22.2V20.325C27.0167 18.675 26.5917 17.475 25.7417 16.725C24.8917 15.975 23.5667 15.6 21.7667 15.6C20.3667 15.6 19.0667 15.675 17.8667 15.825C16.7167 15.925 15.5917 16.125 14.4917 16.425V12.225C15.6917 11.925 16.9417 11.7 18.2417 11.55C19.5417 11.4 21.0667 11.325 22.8167 11.325C25.7667 11.325 27.9417 12 29.3417 13.35C30.7417 14.7 31.4417 16.825 31.4417 19.725V29.775C31.4417 30.575 31.5667 31.175 31.8167 31.575C32.1167 31.925 32.5417 32.1 33.0917 32.1C34.5917 32.1 35.7917 31.05 36.6917 28.95C37.6417 26.85 38.1167 24.075 38.1167 20.625C38.1167 15.425 36.8167 11.5 34.2167 8.85C31.6167 6.15 27.7667 4.8 22.6667 4.8C16.3167 4.8 11.7917 6.3 9.0917 9.3C6.4417 12.3 5.1167 17.3 5.1167 24.3C5.1167 30.8 6.5917 35.55 9.5417 38.55C12.5417 41.5 17.3667 42.975 24.0167 42.975C26.3667 42.975 28.6167 42.725 30.7667 42.225C32.9667 41.725 34.9417 41 36.6917 40.05V44.7C34.9417 45.7 32.8917 46.45 30.5417 46.95C28.1917 47.45 25.6417 47.7 22.8917 47.7C15.1417 47.7 9.3917 45.775 5.6417 41.925C1.8917 38.075 0.0166995 32.2 0.0166995 24.3C0.0166995 16.25 1.8917 10.225 5.6417 6.225C9.4417 2.225 15.1167 0.224997 22.6667 0.224997C29.2167 0.224997 34.2167 1.95 37.6667 5.4C41.1167 8.8 42.8417 13.7 42.8417 20.1C42.8417 25.1 41.8917 29.075 39.9917 32.025C38.1417 34.925 35.5917 36.375 32.3417 36.375C31.1917 36.375 30.2417 36.125 29.4917 35.625C28.7417 35.125 28.2167 34.375 27.9167 33.375C26.8667 34.325 25.5667 35.075 24.0167 35.625C22.5167 36.125 20.9167 36.375 19.2167 36.375ZM21.8417 25.125C19.7917 25.125 18.3917 25.375 17.6417 25.875C16.9417 26.325 16.5917 27.2 16.5917 28.5C16.5917 29.85 16.8917 30.825 17.4917 31.425C18.1417 31.975 19.1667 32.25 20.5667 32.25C21.8167 32.25 23.0167 32.075 24.1667 31.725C25.3667 31.375 26.3167 30.9 27.0167 30.3V25.5C25.6667 25.35 24.6417 25.25 23.9417 25.2C23.2917 25.15 22.5917 25.125 21.8417 25.125Z" fill="white"/>
</svg>
