<svg width="102" height="92" viewBox="0 0 102 92" fill="none" xmlns="http://www.w3.org/2000/svg">
<path fill-rule="evenodd" clip-rule="evenodd" d="M59.4003 36.4C59.4003 41.0392 55.6395 44.8 51.0003 44.8C46.3612 44.8 42.6003 41.0392 42.6003 36.4C42.6003 31.7608 46.3612 28 51.0003 28C55.6395 28 59.4003 31.7608 59.4003 36.4ZM56.6003 36.4C56.6003 39.4928 54.0931 42 51.0003 42C47.9075 42 45.4003 39.4928 45.4003 36.4C45.4003 33.3072 47.9075 30.8 51.0003 30.8C54.0931 30.8 56.6003 33.3072 56.6003 36.4Z" fill="white"/>
<path d="M51.0003 49C41.9362 49 34.2133 54.3598 31.2715 61.8689C31.9881 62.5805 32.7431 63.2536 33.5329 63.8849C35.7236 56.9908 42.5957 51.8 51.0003 51.8C59.4049 51.8 66.2771 56.9908 68.4678 63.8849C69.2576 63.2536 70.0126 62.5805 70.7292 61.8689C67.7874 54.3598 60.0645 49 51.0003 49Z" fill="white"/>
</svg>
