<svg width="75" height="75" viewBox="0 0 75 75" fill="none" xmlns="http://www.w3.org/2000/svg">
<path d="M61.6806 32.4786C61.5959 34.1952 60.2936 36.3147 58.1947 38.3517V65.195C58.1924 65.8862 57.9201 66.4722 57.46 66.9299C56.9977 67.3786 56.3979 67.644 55.6929 67.6486H11.947C11.2466 67.644 10.6446 67.3785 10.1823 66.9299C9.72216 66.4722 9.45219 65.8862 9.44985 65.195V22.2979C9.45219 21.609 9.72216 21.0207 10.1823 20.5629C10.6446 20.1143 11.2466 19.8488 11.947 19.8443H35.1807C37.0598 17.3769 39.2502 14.8501 41.7313 12.5338C41.7428 12.5201 41.752 12.5063 41.7634 12.4927H11.947C9.20038 12.4903 6.67587 13.5959 4.87909 15.3629C3.07323 17.1299 1.94706 19.6019 1.94941 22.2981V65.1951C1.94706 67.8913 3.07323 70.3679 4.87909 72.1303C6.67572 73.897 9.20038 75.0002 11.947 75.0002H55.6932C58.4443 75.0002 60.969 73.897 62.7656 72.13C64.5669 70.3676 65.6953 67.891 65.693 65.1948V29.8052C65.693 29.8052 65.6747 29.7824 65.6449 29.7594C64.5073 30.7345 63.1821 31.6637 61.6806 32.4786Z" fill="white"/>
<path d="M72.9577 0C72.9577 0 70.6597 3.4333 55.6497 8.51206C40.3443 13.6917 30.9235 34.7626 30.9235 34.7626C28.6553 39.0794 19.6899 57.0145 19.6899 57.0145C17.2203 61.6471 21.7452 64.3846 24.4002 59.6008C29.4882 50.418 32.7727 42.0272 40.509 41.7892C51.7951 41.4413 59.513 31.5857 57.0845 32.0435C53.8893 33.4351 46.8444 32.1488 50.994 31.5079C60.955 30.7091 67.0935 23.2223 65.0931 22.7143C61.5615 24.0738 58.2678 22.783 57.6224 22.3938C75.203 20.256 72.9577 0 72.9577 0Z" fill="white"/>
</svg>
