<svg width="53" height="41" viewBox="0 0 53 41" fill="none" xmlns="http://www.w3.org/2000/svg">
<path d="M44.896 3.43374C41.4653 1.82962 37.7969 0.66382 33.9617 0C33.4907 0.850993 32.9405 1.9956 32.5611 2.90613C28.4842 2.29342 24.4448 2.29342 20.4429 2.90613C20.0636 1.9956 19.5008 0.850993 19.0256 0C15.1863 0.66382 11.5137 1.83391 8.08293 3.44224C1.163 13.8922 -0.712875 24.0827 0.225066 34.1284C4.81472 37.5536 9.26265 39.6342 13.6355 40.9958C14.7152 39.5108 15.6781 37.9323 16.5077 36.2686C14.9278 35.6687 13.4146 34.9283 11.9848 34.0688C12.3641 33.788 12.7351 33.4944 13.0936 33.1923C21.8143 37.2685 31.2897 37.2685 39.9062 33.1923C40.2689 33.4944 40.6399 33.788 41.015 34.0688C39.581 34.9325 38.0637 35.6729 36.4838 36.2729C37.3133 37.9323 38.2721 39.5151 39.3559 41C43.733 39.6385 48.1851 37.5578 52.7747 34.1284C53.8753 22.4828 50.8947 12.386 44.896 3.43374ZM17.6958 27.9503C15.0779 27.9503 12.931 25.508 12.931 22.5339C12.931 19.5597 15.032 17.1132 17.6958 17.1132C20.3596 17.1132 22.5064 19.5554 22.4605 22.5339C22.4647 25.508 20.3596 27.9503 17.6958 27.9503ZM35.3041 27.9503C32.6862 27.9503 30.5393 25.508 30.5393 22.5339C30.5393 19.5597 32.6403 17.1132 35.3041 17.1132C37.9678 17.1132 40.1146 19.5554 40.0688 22.5339C40.0688 25.508 37.9678 27.9503 35.3041 27.9503Z" fill="white"/>
</svg>
