<svg width="70" height="70" viewBox="0 0 70 70" fill="none" xmlns="http://www.w3.org/2000/svg">
<path d="M52.5 43.75C47.6675 43.75 43.75 47.6675 43.75 52.5C43.75 57.3325 47.6675 61.25 52.5 61.25C57.3325 61.25 61.25 57.3325 61.25 52.5C61.25 47.6675 57.3325 43.75 52.5 43.75ZM52.5 43.75V23.3333C52.5 21.7862 51.8854 20.3025 50.7915 19.2085C49.6975 18.1146 48.2138 17.5 46.6667 17.5H37.9167M17.5 26.25C22.3325 26.25 26.25 22.3325 26.25 17.5C26.25 12.6675 22.3325 8.75 17.5 8.75C12.6675 8.75 8.75 12.6675 8.75 17.5C8.75 22.3325 12.6675 26.25 17.5 26.25ZM17.5 26.25V61.25" stroke="#F3F3F3" stroke-width="4" stroke-linecap="round" stroke-linejoin="round"/>
</svg>
