<svg width="37" height="35" viewBox="0 0 37 35" fill="none" xmlns="http://www.w3.org/2000/svg">
<path d="M14.0139 13.125C14.3764 12.1503 15.0918 11.3285 16.0334 10.805C16.9751 10.2815 18.0822 10.0901 19.1587 10.2648C20.2352 10.4394 21.2117 10.9689 21.9151 11.7593C22.6185 12.5497 23.0035 13.5501 23.0018 14.5833C23.0018 17.5 18.3768 18.9583 18.3768 18.9583M18.5002 24.7917H18.5156M33.9168 17.5C33.9168 25.5541 27.0146 32.0833 18.5002 32.0833C9.98577 32.0833 3.0835 25.5541 3.0835 17.5C3.0835 9.44584 9.98577 2.91666 18.5002 2.91666C27.0146 2.91666 33.9168 9.44584 33.9168 17.5Z" stroke="#F3F3F3" stroke-width="3" stroke-linecap="round" stroke-linejoin="round"/>
</svg>
