<svg width="76" height="40" viewBox="0 0 76 40" fill="none" xmlns="http://www.w3.org/2000/svg">
<circle cx="56" cy="16" r="6" fill="white"/>
<circle cx="20" cy="16" r="6" fill="white"/>
<path fill-rule="evenodd" clip-rule="evenodd" d="M45.0002 16C45.0002 19.3137 42.314 22 39.0002 22C35.6865 22 33.0002 19.3137 33.0002 16C33.0002 12.6863 35.6865 10 39.0002 10C42.314 10 45.0002 12.6863 45.0002 16ZM43.0002 16C43.0002 18.2091 41.2094 20 39.0002 20C36.7911 20 35.0002 18.2091 35.0002 16C35.0002 13.7909 36.7911 12 39.0002 12C41.2094 12 43.0002 13.7909 43.0002 16Z" fill="white"/>
<path d="M39.0002 25C32.5259 25 27.0095 28.8284 24.9082 34.192C25.4201 34.7004 25.9593 35.1812 26.5235 35.6321C28.0883 30.7077 32.997 27 39.0002 27C45.0035 27 49.9122 30.7077 51.477 35.6321C52.0412 35.1812 52.5804 34.7004 53.0923 34.1921C50.991 28.8284 45.4746 25 39.0002 25Z" fill="white"/>
<path fill-rule="evenodd" clip-rule="evenodd" d="M26.0002 16C26.0002 19.3137 23.314 22 20.0002 22C16.6865 22 14.0002 19.3137 14.0002 16C14.0002 12.6863 16.6865 10 20.0002 10C23.314 10 26.0002 12.6863 26.0002 16ZM24.0002 16C24.0002 18.2091 22.2094 20 20.0002 20C17.7911 20 16.0002 18.2091 16.0002 16C16.0002 13.7909 17.7911 12 20.0002 12C22.2094 12 24.0002 13.7909 24.0002 16Z" fill="white"/>
<path d="M20.0002 25C13.5259 25 8.00952 28.8284 5.9082 34.192C6.4201 34.7004 6.95934 35.1812 7.52353 35.6321C9.08827 30.7077 13.997 27 20.0002 27C26.0035 27 30.9122 30.7077 32.477 35.6321C33.0412 35.1812 33.5804 34.7004 34.0923 34.1921C31.991 28.8284 26.4746 25 20.0002 25Z" fill="white"/>
<path fill-rule="evenodd" clip-rule="evenodd" d="M62.0002 16C62.0002 19.3137 59.314 22 56.0002 22C52.6865 22 50.0002 19.3137 50.0002 16C50.0002 12.6863 52.6865 10 56.0002 10C59.314 10 62.0002 12.6863 62.0002 16ZM60.0002 16C60.0002 18.2091 58.2094 20 56.0002 20C53.7911 20 52.0002 18.2091 52.0002 16C52.0002 13.7909 53.7911 12 56.0002 12C58.2094 12 60.0002 13.7909 60.0002 16Z" fill="white"/>
<path d="M56.0002 25C49.5259 25 44.0095 28.8284 41.9082 34.192C42.4201 34.7004 42.9593 35.1812 43.5235 35.6321C45.0883 30.7077 49.997 27 56.0002 27C62.0035 27 66.9122 30.7077 68.477 35.6321C69.0412 35.1812 69.5804 34.7004 70.0923 34.1921C67.991 28.8284 62.4746 25 56.0002 25Z" fill="white"/>
</svg>
