<svg width="279" height="137" viewBox="0 0 279 137" fill="none" xmlns="http://www.w3.org/2000/svg">
<path d="M71.1769 81.528C71.1769 87.672 69.4489 92.12 65.9929 94.872C62.5369 97.624 57.0649 99 49.5769 99H26.0569V38.808H49.5769C56.3609 38.808 61.1609 39.96 63.9769 42.264C66.8569 44.568 68.2969 48.504 68.2969 54.072C68.2969 57.848 67.7209 60.728 66.5689 62.712C65.4169 64.696 63.3049 66.136 60.2329 67.032C63.8809 67.672 66.6009 69.208 68.3929 71.64C70.2489 74.008 71.1769 77.304 71.1769 81.528ZM57.6409 55.704C57.6409 52.952 57.0329 51.064 55.8169 50.04C54.6649 48.952 52.5849 48.408 49.5769 48.408H37.5769V63.96H49.5769C52.4569 63.96 54.5049 63.32 55.7209 62.04C57.0009 60.76 57.6409 58.648 57.6409 55.704ZM60.0409 80.76C60.0409 77.816 59.2409 75.768 57.6409 74.616C56.1049 73.464 53.4169 72.888 49.5769 72.888H37.5769V89.016H49.5769C53.4169 89.016 56.1049 88.408 57.6409 87.192C59.2409 85.976 60.0409 83.832 60.0409 80.76ZM116.642 87.384V96.408C115.042 97.368 112.514 98.2 109.058 98.904C105.666 99.544 102.114 99.864 98.4019 99.864C90.8499 99.864 85.4099 97.944 82.0819 94.104C78.8179 90.264 77.1859 83.928 77.1859 75.096C77.1859 66.584 78.9139 60.376 82.3699 56.472C85.8259 52.568 91.2979 50.616 98.7859 50.616C106.018 50.616 111.138 52.12 114.146 55.128C117.154 58.136 118.658 63.288 118.658 70.584C118.658 71.928 118.626 73.176 118.562 74.328C118.498 75.416 118.37 76.952 118.178 78.936H88.4179C88.4819 82.904 89.3459 85.688 91.0099 87.288C92.7379 88.888 95.7779 89.688 100.13 89.688C103.01 89.688 105.986 89.464 109.058 89.016C112.13 88.568 114.658 88.024 116.642 87.384ZM98.7859 60.312C94.8819 60.312 92.1619 61.08 90.6259 62.616C89.1539 64.152 88.4179 66.936 88.4179 70.968H108.482V68.952C108.418 65.688 107.682 63.448 106.274 62.232C104.866 60.952 102.37 60.312 98.7859 60.312ZM165.22 88.152V99H127.588V38.808H139.108V88.152H165.22ZM210.033 88.152V99H172.401V38.808H183.921V88.152H210.033ZM227.869 99.864C223.005 99.864 219.421 98.68 217.117 96.312C214.877 93.88 213.757 90.104 213.757 84.984C213.757 79.736 215.101 76.024 217.789 73.848C220.541 71.672 225.245 70.584 231.901 70.584C233.757 70.584 235.645 70.68 237.565 70.872C239.485 71.064 241.149 71.32 242.557 71.64V67.608C242.557 65.112 241.789 63.288 240.253 62.136C238.717 60.984 236.285 60.408 232.957 60.408C229.949 60.408 227.261 60.504 224.893 60.696C222.589 60.888 220.381 61.208 218.269 61.656V52.344C220.701 51.768 223.325 51.352 226.141 51.096C229.021 50.776 232.413 50.616 236.317 50.616C242.141 50.616 246.493 51.96 249.373 54.648C252.253 57.272 253.693 61.24 253.693 66.552V99H243.421L242.941 94.776H242.749C240.701 96.312 238.333 97.56 235.645 98.52C233.021 99.416 230.429 99.864 227.869 99.864ZM233.245 78.552C229.789 78.552 227.421 78.968 226.141 79.8C224.861 80.568 224.221 82.072 224.221 84.312C224.221 86.488 224.733 88.056 225.757 89.016C226.845 89.912 228.669 90.36 231.229 90.36C233.085 90.36 235.037 90.104 237.085 89.592C239.197 89.016 241.021 88.312 242.557 87.48V79.32C241.021 79.064 239.485 78.872 237.949 78.744C236.477 78.616 234.909 78.552 233.245 78.552Z" fill="white"/>
<path d="M39.3612 124.129C39.3612 125.665 38.9452 126.769 38.1132 127.441C37.2812 128.113 35.9452 128.449 34.1052 128.449H28.5612V113.401H34.0812C35.7452 113.401 36.9292 113.681 37.6332 114.241C38.3372 114.801 38.6892 115.761 38.6892 117.121C38.6892 118.097 38.5132 118.849 38.1612 119.377C37.8252 119.905 37.2492 120.265 36.4332 120.457C37.4092 120.585 38.1372 120.953 38.6172 121.561C39.1132 122.169 39.3612 123.025 39.3612 124.129ZM36.7932 117.409C36.7932 116.577 36.5932 116.001 36.1932 115.681C35.7932 115.345 35.0972 115.177 34.1052 115.177H30.6012V119.881H34.1052C35.0652 119.881 35.7532 119.689 36.1692 119.305C36.5852 118.921 36.7932 118.289 36.7932 117.409ZM37.3932 124.009C37.3932 123.113 37.1452 122.489 36.6492 122.137C36.1532 121.785 35.3052 121.609 34.1052 121.609H30.6012V126.625H34.1052C35.3052 126.625 36.1532 126.433 36.6492 126.049C37.1452 125.665 37.3932 124.985 37.3932 124.009ZM50.7509 126.145V127.801C50.3349 128.025 49.7189 128.225 48.9029 128.401C48.1029 128.561 47.2869 128.641 46.4549 128.641C44.5989 128.641 43.2709 128.161 42.4709 127.201C41.6709 126.241 41.2709 124.657 41.2709 122.449C41.2709 120.321 41.6869 118.777 42.5189 117.817C43.3509 116.841 44.6789 116.353 46.5029 116.353C48.1989 116.353 49.4149 116.737 50.1509 117.505C50.8869 118.257 51.2549 119.521 51.2549 121.297C51.2549 121.617 51.2469 121.913 51.2309 122.185C51.2149 122.457 51.1829 122.785 51.1349 123.169H43.2629C43.2789 124.481 43.5429 125.417 44.0549 125.977C44.5829 126.537 45.4869 126.817 46.7669 126.817C47.4549 126.817 48.1749 126.753 48.9269 126.625C49.6789 126.497 50.2869 126.337 50.7509 126.145ZM49.4549 121.033C49.4389 119.977 49.2069 119.233 48.7589 118.801C48.3109 118.353 47.5589 118.129 46.5029 118.129C45.3189 118.129 44.4789 118.385 43.9829 118.897C43.5029 119.393 43.2629 120.273 43.2629 121.537H49.4309C49.4309 121.505 49.4309 121.433 49.4309 121.321C49.4469 121.193 49.4549 121.097 49.4549 121.033ZM60.6429 126.601V128.257C60.3869 128.369 60.0349 128.457 59.5869 128.521C59.1549 128.601 58.7389 128.641 58.3389 128.641C56.8989 128.641 55.8669 128.321 55.2429 127.681C54.6349 127.041 54.3309 125.937 54.3309 124.369V118.273H52.5549V116.593H54.3549L54.6669 113.713H56.2989V116.593H60.5229V118.273H56.2989V124.297C56.2989 125.273 56.4749 125.937 56.8269 126.289C57.1949 126.641 57.8349 126.817 58.7469 126.817C59.0349 126.817 59.3629 126.793 59.7309 126.745C60.1149 126.697 60.4189 126.649 60.6429 126.601ZM69.5491 126.601V128.257C69.2931 128.369 68.9411 128.457 68.4931 128.521C68.0611 128.601 67.6451 128.641 67.2451 128.641C65.8051 128.641 64.7731 128.321 64.1491 127.681C63.5411 127.041 63.2371 125.937 63.2371 124.369V118.273H61.4611V116.593H63.2611L63.5731 113.713H65.2051V116.593H69.4291V118.273H65.2051V124.297C65.2051 125.273 65.3811 125.937 65.7331 126.289C66.1011 126.641 66.7411 126.817 67.6531 126.817C67.9411 126.817 68.2691 126.793 68.6371 126.745C69.0211 126.697 69.3251 126.649 69.5491 126.601ZM80.2587 126.145V127.801C79.8427 128.025 79.2267 128.225 78.4107 128.401C77.6107 128.561 76.7947 128.641 75.9627 128.641C74.1067 128.641 72.7787 128.161 71.9787 127.201C71.1787 126.241 70.7787 124.657 70.7787 122.449C70.7787 120.321 71.1947 118.777 72.0267 117.817C72.8587 116.841 74.1867 116.353 76.0107 116.353C77.7067 116.353 78.9227 116.737 79.6587 117.505C80.3947 118.257 80.7627 119.521 80.7627 121.297C80.7627 121.617 80.7547 121.913 80.7387 122.185C80.7227 122.457 80.6907 122.785 80.6427 123.169H72.7707C72.7867 124.481 73.0507 125.417 73.5627 125.977C74.0907 126.537 74.9947 126.817 76.2747 126.817C76.9627 126.817 77.6827 126.753 78.4347 126.625C79.1867 126.497 79.7947 126.337 80.2587 126.145ZM78.9627 121.033C78.9467 119.977 78.7147 119.233 78.2667 118.801C77.8187 118.353 77.0667 118.129 76.0107 118.129C74.8267 118.129 73.9867 118.385 73.4907 118.897C73.0107 119.393 72.7707 120.273 72.7707 121.537H78.9387C78.9387 121.505 78.9387 121.433 78.9387 121.321C78.9547 121.193 78.9627 121.097 78.9627 121.033ZM85.2759 128.449H83.3079V116.593H85.1079L85.2039 117.601H85.2999C85.9239 117.233 86.5479 116.961 87.1719 116.785C87.7959 116.593 88.4119 116.497 89.0199 116.497C89.2759 116.497 89.4439 116.497 89.5239 116.497C89.6199 116.497 89.6919 116.505 89.7399 116.521V118.417C89.6279 118.385 89.4839 118.369 89.3079 118.369C89.1479 118.353 88.8919 118.345 88.5399 118.345C87.9639 118.345 87.3959 118.417 86.8359 118.561C86.2919 118.689 85.7719 118.889 85.2759 119.161V128.449ZM104.785 126.529V128.449H95.569V113.401H97.609V126.529H104.785ZM109.433 128.641C108.217 128.641 107.321 128.353 106.745 127.777C106.185 127.185 105.905 126.257 105.905 124.993C105.905 123.713 106.249 122.809 106.937 122.281C107.625 121.737 108.793 121.465 110.441 121.465C110.985 121.465 111.521 121.489 112.049 121.537C112.577 121.585 113.073 121.657 113.537 121.753V120.601C113.537 119.721 113.313 119.089 112.865 118.705C112.417 118.321 111.697 118.129 110.705 118.129C109.969 118.129 109.321 118.161 108.761 118.225C108.201 118.273 107.641 118.361 107.081 118.489V116.785C107.721 116.625 108.369 116.513 109.025 116.449C109.697 116.385 110.457 116.353 111.305 116.353C112.729 116.353 113.785 116.689 114.473 117.361C115.161 118.017 115.505 119.041 115.505 120.433V128.449H113.705L113.609 127.345H113.561C113.081 127.729 112.457 128.041 111.689 128.281C110.937 128.521 110.185 128.641 109.433 128.641ZM110.657 123.073C109.569 123.073 108.809 123.209 108.377 123.481C107.961 123.737 107.753 124.201 107.753 124.873C107.753 125.577 107.929 126.089 108.281 126.409C108.633 126.713 109.209 126.865 110.009 126.865C110.633 126.865 111.273 126.769 111.929 126.577C112.585 126.385 113.121 126.145 113.537 125.857V123.313C113.009 123.233 112.513 123.177 112.049 123.145C111.601 123.097 111.137 123.073 110.657 123.073ZM120.549 128.449H118.581V116.593H120.381L120.477 117.601H120.573C121.197 117.233 121.821 116.961 122.445 116.785C123.069 116.593 123.685 116.497 124.293 116.497C124.549 116.497 124.717 116.497 124.797 116.497C124.893 116.497 124.965 116.505 125.013 116.521V118.417C124.901 118.385 124.757 118.369 124.581 118.369C124.421 118.353 124.165 118.345 123.813 118.345C123.237 118.345 122.669 118.417 122.109 118.561C121.565 118.689 121.045 118.889 120.549 119.161V128.449ZM131.608 132.337C130.808 132.337 130.056 132.281 129.352 132.169C128.664 132.073 128.096 131.937 127.648 131.761V130.009C128.016 130.153 128.552 130.273 129.256 130.369C129.976 130.465 130.688 130.513 131.392 130.513C132.592 130.513 133.424 130.273 133.888 129.793C134.352 129.329 134.584 128.497 134.584 127.297V126.553C133.992 126.905 133.36 127.177 132.688 127.369C132.016 127.545 131.336 127.633 130.648 127.633C129.064 127.633 127.928 127.193 127.24 126.313C126.568 125.433 126.232 123.993 126.232 121.993C126.232 119.961 126.664 118.513 127.528 117.649C128.408 116.785 129.896 116.353 131.992 116.353C132.744 116.353 133.552 116.401 134.416 116.497C135.28 116.577 135.992 116.681 136.552 116.809V126.745C136.552 128.825 136.184 130.273 135.448 131.089C134.712 131.921 133.432 132.337 131.608 132.337ZM131.992 118.129C130.456 118.129 129.44 118.393 128.944 118.921C128.448 119.449 128.2 120.473 128.2 121.993C128.2 123.433 128.408 124.433 128.824 124.993C129.256 125.537 130.08 125.809 131.296 125.809C131.824 125.809 132.368 125.737 132.928 125.593C133.504 125.433 134.056 125.217 134.584 124.945V118.393C134.2 118.313 133.784 118.249 133.336 118.201C132.904 118.153 132.456 118.129 131.992 118.129ZM148.602 126.145V127.801C148.186 128.025 147.57 128.225 146.754 128.401C145.954 128.561 145.138 128.641 144.306 128.641C142.45 128.641 141.122 128.161 140.322 127.201C139.522 126.241 139.122 124.657 139.122 122.449C139.122 120.321 139.538 118.777 140.37 117.817C141.202 116.841 142.53 116.353 144.354 116.353C146.05 116.353 147.266 116.737 148.002 117.505C148.738 118.257 149.106 119.521 149.106 121.297C149.106 121.617 149.098 121.913 149.082 122.185C149.066 122.457 149.034 122.785 148.986 123.169H141.114C141.13 124.481 141.394 125.417 141.906 125.977C142.434 126.537 143.338 126.817 144.618 126.817C145.306 126.817 146.026 126.753 146.778 126.625C147.53 126.497 148.138 126.337 148.602 126.145ZM147.306 121.033C147.29 119.977 147.058 119.233 146.61 118.801C146.162 118.353 145.41 118.129 144.354 118.129C143.17 118.129 142.33 118.385 141.834 118.897C141.354 119.393 141.114 120.273 141.114 121.537H147.282C147.282 121.505 147.282 121.433 147.282 121.321C147.298 121.193 147.306 121.097 147.306 121.033ZM165.113 126.529V128.449H155.897V113.401H157.937V126.529H165.113ZM169.761 128.641C168.545 128.641 167.649 128.353 167.073 127.777C166.513 127.185 166.233 126.257 166.233 124.993C166.233 123.713 166.577 122.809 167.265 122.281C167.953 121.737 169.121 121.465 170.769 121.465C171.313 121.465 171.849 121.489 172.377 121.537C172.905 121.585 173.401 121.657 173.865 121.753V120.601C173.865 119.721 173.641 119.089 173.193 118.705C172.745 118.321 172.025 118.129 171.033 118.129C170.297 118.129 169.649 118.161 169.089 118.225C168.529 118.273 167.969 118.361 167.409 118.489V116.785C168.049 116.625 168.697 116.513 169.353 116.449C170.025 116.385 170.785 116.353 171.633 116.353C173.057 116.353 174.113 116.689 174.801 117.361C175.489 118.017 175.833 119.041 175.833 120.433V128.449H174.033L173.937 127.345H173.889C173.409 127.729 172.785 128.041 172.017 128.281C171.265 128.521 170.513 128.641 169.761 128.641ZM170.985 123.073C169.897 123.073 169.137 123.209 168.705 123.481C168.289 123.737 168.081 124.201 168.081 124.873C168.081 125.577 168.257 126.089 168.609 126.409C168.961 126.713 169.537 126.865 170.337 126.865C170.961 126.865 171.601 126.769 172.257 126.577C172.913 126.385 173.449 126.145 173.865 125.857V123.313C173.337 123.233 172.841 123.177 172.377 123.145C171.929 123.097 171.465 123.073 170.985 123.073ZM180.877 128.449H178.909V116.593H180.613L180.709 117.745H180.781C181.421 117.265 182.085 116.913 182.773 116.689C183.477 116.465 184.261 116.353 185.125 116.353C186.437 116.353 187.429 116.681 188.101 117.337C188.789 117.993 189.133 118.961 189.133 120.241V128.449H187.165V120.481C187.165 119.681 186.941 119.089 186.493 118.705C186.045 118.321 185.357 118.129 184.429 118.129C183.853 118.129 183.261 118.225 182.653 118.417C182.061 118.593 181.469 118.857 180.877 119.209V128.449ZM197.022 132.337C196.222 132.337 195.47 132.281 194.766 132.169C194.078 132.073 193.51 131.937 193.062 131.761V130.009C193.43 130.153 193.966 130.273 194.67 130.369C195.39 130.465 196.102 130.513 196.806 130.513C198.006 130.513 198.838 130.273 199.302 129.793C199.766 129.329 199.998 128.497 199.998 127.297V126.553C199.406 126.905 198.774 127.177 198.102 127.369C197.43 127.545 196.75 127.633 196.062 127.633C194.478 127.633 193.342 127.193 192.654 126.313C191.982 125.433 191.646 123.993 191.646 121.993C191.646 119.961 192.078 118.513 192.942 117.649C193.822 116.785 195.31 116.353 197.406 116.353C198.158 116.353 198.966 116.401 199.83 116.497C200.694 116.577 201.406 116.681 201.966 116.809V126.745C201.966 128.825 201.598 130.273 200.862 131.089C200.126 131.921 198.846 132.337 197.022 132.337ZM197.406 118.129C195.87 118.129 194.854 118.393 194.358 118.921C193.862 119.449 193.614 120.473 193.614 121.993C193.614 123.433 193.822 124.433 194.238 124.993C194.67 125.537 195.494 125.809 196.71 125.809C197.238 125.809 197.782 125.737 198.342 125.593C198.918 125.433 199.47 125.217 199.998 124.945V118.393C199.614 118.313 199.198 118.249 198.75 118.201C198.318 118.153 197.87 118.129 197.406 118.129ZM208.953 128.641C207.641 128.641 206.657 128.313 206.001 127.657C205.345 127.001 205.017 126.017 205.017 124.705V116.593H206.985V124.465C206.985 125.281 207.193 125.873 207.609 126.241C208.025 126.609 208.681 126.793 209.577 126.793C210.121 126.793 210.665 126.729 211.209 126.601C211.769 126.457 212.329 126.241 212.889 125.953V116.593H214.857V128.449H213.057L212.961 127.465H212.913C212.081 127.897 211.361 128.201 210.753 128.377C210.145 128.553 209.545 128.641 208.953 128.641ZM220.715 128.641C219.499 128.641 218.603 128.353 218.027 127.777C217.467 127.185 217.187 126.257 217.187 124.993C217.187 123.713 217.531 122.809 218.219 122.281C218.907 121.737 220.075 121.465 221.723 121.465C222.267 121.465 222.803 121.489 223.331 121.537C223.859 121.585 224.355 121.657 224.819 121.753V120.601C224.819 119.721 224.595 119.089 224.147 118.705C223.699 118.321 222.979 118.129 221.987 118.129C221.251 118.129 220.603 118.161 220.043 118.225C219.483 118.273 218.923 118.361 218.363 118.489V116.785C219.003 116.625 219.651 116.513 220.307 116.449C220.979 116.385 221.739 116.353 222.587 116.353C224.011 116.353 225.067 116.689 225.755 117.361C226.443 118.017 226.787 119.041 226.787 120.433V128.449H224.987L224.891 127.345H224.843C224.363 127.729 223.739 128.041 222.971 128.281C222.219 128.521 221.467 128.641 220.715 128.641ZM221.939 123.073C220.851 123.073 220.091 123.209 219.659 123.481C219.243 123.737 219.035 124.201 219.035 124.873C219.035 125.577 219.211 126.089 219.563 126.409C219.915 126.713 220.491 126.865 221.291 126.865C221.915 126.865 222.555 126.769 223.211 126.577C223.867 126.385 224.403 126.145 224.819 125.857V123.313C224.291 123.233 223.795 123.177 223.331 123.145C222.883 123.097 222.419 123.073 221.939 123.073ZM234.687 132.337C233.887 132.337 233.135 132.281 232.431 132.169C231.743 132.073 231.175 131.937 230.727 131.761V130.009C231.095 130.153 231.631 130.273 232.335 130.369C233.055 130.465 233.767 130.513 234.471 130.513C235.671 130.513 236.503 130.273 236.967 129.793C237.431 129.329 237.663 128.497 237.663 127.297V126.553C237.071 126.905 236.439 127.177 235.767 127.369C235.095 127.545 234.415 127.633 233.727 127.633C232.143 127.633 231.007 127.193 230.319 126.313C229.647 125.433 229.311 123.993 229.311 121.993C229.311 119.961 229.743 118.513 230.607 117.649C231.487 116.785 232.975 116.353 235.071 116.353C235.823 116.353 236.631 116.401 237.495 116.497C238.359 116.577 239.071 116.681 239.631 116.809V126.745C239.631 128.825 239.263 130.273 238.527 131.089C237.791 131.921 236.511 132.337 234.687 132.337ZM235.071 118.129C233.535 118.129 232.519 118.393 232.023 118.921C231.527 119.449 231.279 120.473 231.279 121.993C231.279 123.433 231.487 124.433 231.903 124.993C232.335 125.537 233.159 125.809 234.375 125.809C234.903 125.809 235.447 125.737 236.007 125.593C236.583 125.433 237.135 125.217 237.663 124.945V118.393C237.279 118.313 236.863 118.249 236.415 118.201C235.983 118.153 235.535 118.129 235.071 118.129ZM251.681 126.145V127.801C251.265 128.025 250.649 128.225 249.833 128.401C249.033 128.561 248.217 128.641 247.385 128.641C245.529 128.641 244.201 128.161 243.401 127.201C242.601 126.241 242.201 124.657 242.201 122.449C242.201 120.321 242.617 118.777 243.449 117.817C244.281 116.841 245.609 116.353 247.433 116.353C249.129 116.353 250.345 116.737 251.081 117.505C251.817 118.257 252.185 119.521 252.185 121.297C252.185 121.617 252.177 121.913 252.161 122.185C252.145 122.457 252.113 122.785 252.065 123.169H244.193C244.209 124.481 244.473 125.417 244.985 125.977C245.513 126.537 246.417 126.817 247.697 126.817C248.385 126.817 249.105 126.753 249.857 126.625C250.609 126.497 251.217 126.337 251.681 126.145ZM250.385 121.033C250.369 119.977 250.137 119.233 249.689 118.801C249.241 118.353 248.489 118.129 247.433 118.129C246.249 118.129 245.409 118.385 244.913 118.897C244.433 119.393 244.193 120.273 244.193 121.537H250.361C250.361 121.505 250.361 121.433 250.361 121.321C250.377 121.193 250.385 121.097 250.385 121.033Z" fill="#696969"/>
</svg>
