<svg width="394" height="52" viewBox="0 0 394 52" fill="none" xmlns="http://www.w3.org/2000/svg">
<path d="M39.8897 36.28C39.8897 41.3467 38.3964 45.08 35.4097 47.48C32.4764 49.8267 27.8364 51 21.4897 51H0.769688V0.839997H21.4897C27.2497 0.839997 31.3297 1.85333 33.7297 3.88C36.183 5.85333 37.4097 9.18666 37.4097 13.88C37.4097 16.8667 37.0097 19.16 36.2097 20.76C35.4097 22.3067 33.8097 23.5067 31.4097 24.36C34.2897 24.9467 36.423 26.2267 37.8097 28.2C39.1964 30.1733 39.8897 32.8667 39.8897 36.28ZM25.9697 15.72C25.9697 13.96 25.623 12.7333 24.9297 12.04C24.2897 11.3467 23.143 11 21.4897 11H13.1697V21.16H21.4897C23.143 21.16 24.2897 20.76 24.9297 19.96C25.623 19.1067 25.9697 17.6933 25.9697 15.72ZM27.8897 35.48C27.8897 33.56 27.4097 32.2267 26.4497 31.48C25.4897 30.68 23.8364 30.28 21.4897 30.28H13.1697V40.44H21.4897C23.8364 40.44 25.4897 40.0667 26.4497 39.32C27.4097 38.5733 27.8897 37.2933 27.8897 35.48ZM77.6209 39.32V48.84C76.3409 49.64 74.1809 50.3333 71.1409 50.92C68.1009 51.5067 64.9009 51.8 61.5409 51.8C55.1409 51.8 50.5276 50.2 47.7009 47C44.8743 43.7467 43.4609 38.4933 43.4609 31.24C43.4609 24.1467 44.9543 18.9467 47.9409 15.64C50.9276 12.3333 55.6476 10.68 62.1009 10.68C68.3943 10.68 72.8209 11.9333 75.3809 14.44C77.9943 16.8933 79.3009 21.2667 79.3009 27.56C79.3009 29.2667 79.2743 30.6267 79.2209 31.64C79.1676 32.6533 79.0609 33.8267 78.9009 35.16H55.5409C55.5943 37.3467 56.1809 38.8667 57.3009 39.72C58.4209 40.5733 60.4743 41 63.4609 41C66.0209 41 68.6343 40.84 71.3009 40.52C73.9676 40.1467 76.0743 39.7467 77.6209 39.32ZM62.1009 20.92C59.5409 20.92 57.8076 21.3733 56.9009 22.28C55.9943 23.1333 55.5409 24.84 55.5409 27.4H68.4209V25.64C68.3676 23.7733 67.9143 22.52 67.0609 21.88C66.2609 21.24 64.6076 20.92 62.1009 20.92ZM117.223 39.4V51H85.2228V0.839997H97.6228V39.4H117.223ZM154.098 39.4V51H122.098V0.839997H134.498V39.4H154.098ZM168.173 51.8C164.119 51.8 161.133 50.7867 159.213 48.76C157.346 46.7333 156.413 43.5333 156.413 39.16C156.413 34.68 157.533 31.5333 159.773 29.72C162.066 27.9067 165.986 27 171.533 27C172.813 27 174.119 27.08 175.453 27.24C176.839 27.3467 178.039 27.5067 179.053 27.72V24.84C179.053 23.56 178.493 22.6267 177.373 22.04C176.306 21.4 174.653 21.08 172.413 21.08C169.853 21.08 167.559 21.16 165.533 21.32C163.559 21.4267 161.746 21.64 160.093 21.96V12.12C162.066 11.64 164.359 11.2933 166.973 11.08C169.586 10.8133 172.626 10.68 176.093 10.68C180.999 10.68 184.706 11.7733 187.213 13.96C189.773 16.1467 191.053 19.3733 191.053 23.64V51H179.853L179.453 47.64H179.213C177.559 48.92 175.746 49.9333 173.773 50.68C171.799 51.4267 169.933 51.8 168.173 51.8ZM173.133 34.92C170.999 34.92 169.559 35.16 168.813 35.64C168.066 36.0667 167.693 37 167.693 38.44C167.693 39.7733 167.986 40.7067 168.573 41.24C169.213 41.72 170.306 41.96 171.853 41.96C173.026 41.96 174.253 41.8 175.533 41.48C176.813 41.16 177.986 40.76 179.053 40.28V35.4C178.413 35.24 177.613 35.1333 176.653 35.08C175.693 34.9733 174.519 34.92 173.133 34.92ZM253.347 0.839997V51H241.507L221.667 22.04V51H210.067V0.839997H221.827L241.747 30.92V0.839997H253.347ZM295.564 39.4V51H261.004V0.839997H294.844V12.04H273.404V20.36H291.884V30.76H273.404V39.4H295.564ZM313.795 34.84V51H301.395V0.839997H319.715C327.448 0.839997 332.941 2.14666 336.195 4.76C339.448 7.37333 341.075 11.72 341.075 17.8C341.075 21.9067 340.195 25.2667 338.435 27.88C336.728 30.44 334.115 32.3067 330.595 33.48L342.835 51H327.955L317.555 34.84H313.795ZM328.515 17.8C328.515 15.6667 327.875 14.1733 326.595 13.32C325.315 12.4667 323.021 12.04 319.715 12.04H313.795V24.84H319.715C323.021 24.84 325.315 24.3333 326.595 23.32C327.875 22.2533 328.515 20.4133 328.515 17.8ZM383.587 0.839997V12.04H369.907V51H357.507V12.04H343.827V0.839997H383.587ZM393.74 51H382.14V39.96H393.74V51Z" fill="white"/>
</svg>
