<svg width="156" height="119" viewBox="0 0 156 119" fill="none" xmlns="http://www.w3.org/2000/svg">
<path d="M36.4459 110V7.09999H92.5459C98.0459 7.09999 102.946 8.14999 107.246 10.25C111.646 12.35 115.096 15.3 117.596 19.1C120.096 22.9 121.346 27.35 121.346 32.45C121.346 36.35 120.596 39.9 119.096 43.1C117.596 46.3 115.546 49 112.946 51.2C110.446 53.3 107.596 54.9 104.396 56V56.6C108.196 57.4 111.596 58.95 114.596 61.25C117.596 63.45 119.946 66.3 121.646 69.8C123.346 73.2 124.196 77.15 124.196 81.65C124.196 88.05 122.746 93.35 119.846 97.55C117.046 101.75 113.246 104.9 108.446 107C103.746 109 98.4459 110 92.5459 110H36.4459ZM55.9459 93.35H89.9959C94.0959 93.35 97.4459 92.25 100.046 90.05C102.746 87.75 104.096 84.2 104.096 79.4C104.096 76.6 103.546 74.15 102.446 72.05C101.346 69.95 99.6459 68.35 97.3459 67.25C95.1459 66.05 92.2959 65.45 88.7959 65.45H55.9459V93.35ZM55.9459 49.1H87.4459C90.4459 49.1 92.9459 48.55 94.9459 47.45C97.0459 46.35 98.5959 44.85 99.5959 42.95C100.696 41.05 101.246 38.95 101.246 36.65C101.246 32.25 100.046 29 97.6459 26.9C95.3459 24.8 92.2959 23.75 88.4959 23.75H55.9459V49.1Z" fill="white"/>
<line x1="59" y1="7" x2="59" y2="24" stroke="black" stroke-width="6"/>
<line x1="59" y1="49" x2="59" y2="66" stroke="black" stroke-width="6"/>
<line x1="86" y1="93" x2="86" y2="110" stroke="black" stroke-width="6"/>
</svg>
