<svg width="48" height="48" viewBox="0 0 48 48" fill="none" xmlns="http://www.w3.org/2000/svg">
<path d="M6 36H30M30 36C30 39.3137 32.6863 42 36 42C39.3137 42 42 39.3137 42 36C42 32.6863 39.3137 30 36 30M30 36C30 32.6863 32.6863 30 36 30M18 12C18 8.68629 15.3137 6 12 6C8.68629 6 6 8.68629 6 12C6 15.3137 8.68629 18 12 18C15.3137 18 18 15.3137 18 12ZM18 12C22.7739 12 27.3523 13.8964 30.7279 17.2721C34.1036 20.6477 36 25.2261 36 30" stroke="#F5F5F5" stroke-width="2" stroke-linecap="round" stroke-linejoin="round"/>
</svg>
